<?xml version="1.0" encoding="utf-8"?>
<!-- Generator: Adobe Illustrator 16.0.0, SVG Export Plug-In . SVG Version: 6.00 Build 0)  -->
<!DOCTYPE svg PUBLIC "-//W3C//DTD SVG 1.1//EN" "http://www.w3.org/Graphics/SVG/1.1/DTD/svg11.dtd">
<svg version="1.1" id="uet_icon" xmlns="http://www.w3.org/2000/svg" xmlns:xlink="http://www.w3.org/1999/xlink" x="0px" y="0px"
	 width="48.8px" height="92.611px" viewBox="307.877 103.004 48.8 92.611" enable-background="new 307.877 103.004 48.8 92.611"
	 xml:space="preserve">
<path fill="#FFFFFF" d="M350.628,172.049c1.765,0,2.177-0.675,2.438-2.3c0.201-1.25,0.039-3.138-0.688-3.75
	c-0.948,0.95-0.573,2.063-1.274,2.737c-1.688,0.676-1.924-1.987-1.924-3.412v-1.176h-0.002c0,0.001,0,0.001,0,0.002v-0.002l0,0
	c0.014-1.198-0.012-1.874,0.413-2.748c0.875,0.063,1.038,0.273,1.4,0.826c0.425,0.662,0.35,0.888,0.987,1.197
	c0.111-1.262-0.537-2.486-1.086-3.25C347.566,155.525,342.128,172.102,350.628,172.049z"/>
<path fill="#FFFFFF" d="M352.203,153.826c0.611-2.176,0.337-7.426,0.3-9.987c-0.038-1.825-0.675-2.524-1.612-3.587
	c-3.938-4.4-2.838,10.225-2.688,11.411C349.053,158.552,351.641,155.839,352.203,153.826z"/>
<path fill="#FFFFFF" d="M355.093,131.948c-1.087-0.976-0.85-1.737-1.587-3.087c-0.102-0.2-0.425-0.625-0.875-1.213
	c-5.84-7.26-12.178-14.586-17.49-22.211c-0.738-1.049-1.738-2.735-3.313-2.387c-1,0.225-1.301,1.139-1.325,2.512
	c-0.013,0.113-0.063,0.188-0.188,0.213c-0.073,0.014-0.235,0.039-0.36-0.036c-0.149-0.089-0.25-0.302-0.427-0.677
	c-0.323-0.648-0.61-0.648-1.174-0.674c-0.375-0.013-0.676,0-1.039-0.013c-0.323-0.013-0.262,0.037-0.336-0.25
	c-0.289-1.101-1.176-1.612-1.813,0.112l-0.838,2.236l-8.037,21.176c-0.986,2.563-1.788,4.813-2.163,6.273
	c-0.212,0.837-0.038,0.889-0.663,1.063c-0.324,0.088-3.023-0.063-3.648,0.287c-0.737,0.412-0.088,0.363-0.938,1
	c-0.45,0.338-0.763,0.213-0.688,1.113c0.113,1.512,1.927,0.924,3.852,2.074c0.602,1.65,0.112,8.25,0.352,10.637
	c0.086,3.801,0.023,6.613,3.86,7.2c-0.013,1.927-0.1,10.214,0.112,11.813c0.1,0.688,0.725,2.963,0.188,3.425
	c-0.813,0.726-4.75-0.449-7.426,1.876c-0.675,0.6-1.263,0.949-1.25,2.05c0.663,0.325,1.063,0.287,1.889,0.226
	c0.486,4.149,4.537,1.813,5.549,1.699c0.339,2.713-0.813,1.65,0.275,4.788c0.6,1.737-0.25,2.912,0.514,5.138
	c0.412,1.188,1.3,2.787,0.263,4.875c-0.638,1.264,0.226,2.764,2.987,2.361c0.986-0.148,4.263-0.75,4.813-1.212
	c1.736-1.463,2.5-0.162,4.361-1.688c1.713-1.387,1.524-1.563,1.575-4.476l0.063-4.45c0.226-1.687,1.55-1.1,2.875-1.062
	c3.313,0.125,1.712,1.575,2.462,3.05c0.764,1.514,3.227,0.824,2.273-2.213c1.238-0.725,2.214-0.986,2.052-2.938
	c-0.265-0.552-0.95-0.188-1.226-1.427c2.049-0.425,5.424-0.11,5.013-2.55c-0.987-0.273-5.625-0.05-7.263-0.139
	c-0.801-0.036-2.701-0.088-3.375-0.324c-0.813-0.287-1.676-1.125-1.862-1.824c0.698-0.523,6.25-1.963,6.161-6.801
	c-0.023-0.977-0.336-1.838-0.836-2.45c-1.188-1.476-2.611-2.11-4.563-2.022c-1.388,0.05-2,0.625-2.727,0.138
	c0.451-0.213,2.326-0.95,2.664-1.226c1.188-0.987-0.713-1.852,0.711-2.362c3.363-1.226,2.775,0.226,4.552-2.726
	c0.36-0.611,0.787-0.438,2.512-0.611c-0.188,3.623,0.163,15.225,1.515,17.425c1.211,0.125,2.125-0.888,2.36-1.988
	c0.25-1.137,0.265-3.149,0.302-4.399c0.073-2.313-0.039-7.213,0.35-9.073c1.563-0.677,3.363-0.037,3.013-2.313l-1.649,0.236
	c0.086-1.25,1.324-1.125,1.351-3.688c0.012-1.188-0.688-2.838-0.913-4.088c-0.212-1.188-0.175-3.537-0.227-4.899
	c-0.049-1.388-0.61-3.362-0.023-4.375c0.887-0.25,1.862,1.087,3.337-0.513c0.3-1.602-1.6-2.313-0.024-3.389
	c1.051-0.449,2.875,0.301,3.414,1.038c0.66,0.926,0.725,2.388,2.485,1.763c1.101-0.399,1.712-1.463,1.788-2.912
	C356.77,133.26,355.956,132.725,355.093,131.948z M321.141,147.75c-0.177-1.588-0.25-3.139-0.438-4.675
	c-0.125-1.052-0.875-3.476,0.05-4.087c0.639-0.438,4.014-0.363,4.688-0.088c1.111,1.426,1.188,13.339,0.676,13.648
	C324.777,153.389,321.453,150.65,321.141,147.75z M324.303,174.113c0.176-0.176-0.236-0.074,0.413-0.287
	c2.101-0.688,3.363,0.088,4,0.175c0.851,0.125,0.913,0.038,1.15,0.7C328.715,175.451,324.416,174.201,324.303,174.113z
	 M330.715,166.125c1.264-0.549,3.613-0.636,2.889,1.352c-1.487,4.037-5.326,3.549-5.476,1.162
	C328.053,167.389,329.703,166.563,330.715,166.125z M334.801,152.115c-1.762-1.014-1.273-4.176-1.285-6.313
	c0-1.212-0.052-2.5-0.09-3.725c-0.072-2.427-0.586-2.089-0.861-2.765c0.463-0.475,2.463-0.262,3.713-0.262
	c0.287,1.625,0.113,5.301,0.113,7.137C336.391,148.563,336.777,151.588,334.801,152.115z M346.027,131.063
	c-0.737,0.237-0.539,0.677-1.727,1.014c-4.035-4.588-10.898-19.613-12.811-24.863c5.138,8.537,10.588,14.1,15.4,20.637
	c0.448,0.664,1.637,2.438,1.836,3.14C348.139,131.002,346.463,130.926,346.027,131.063z"/>
</svg>
