<?xml version="1.0" encoding="utf-8"?>
<!-- Generator: Adobe Illustrator 16.0.0, SVG Export Plug-In . SVG Version: 6.00 Build 0)  -->
<!DOCTYPE svg PUBLIC "-//W3C//DTD SVG 1.1//EN" "http://www.w3.org/Graphics/SVG/1.1/DTD/svg11.dtd">
<svg version="1.1"
	 id="Layer_1" shapeRendering="geometricPrecision" imageRendering="optimizeQuality" xmlnsV="https://vecta.io/nano"
	 xmlns="http://www.w3.org/2000/svg" xmlnsXlink="http://www.w3.org/1999/xlink" x="0px" y="0px" width="250px" height="97.625px"
	 viewBox="252.953 98.775 250 97.625" enableBackground="new 252.953 98.775 250 97.625" xmlSpace="preserve">
<g>
	<path d="M501.565,100.163H322.553v94.851h179.014L501.565,100.163L501.565,100.163z M321.865,98.775h181.088V196.4H321.178V98.775
		H321.865z"/>
	<path d="M252.953,98.775h65.225V196.4h-65.225V98.775z M277.803,171.613c0.176-0.176-0.236-0.074,0.413-0.287
		c2.101-0.688,3.363,0.088,4,0.175c0.851,0.125,0.913,0.038,1.15,0.7C282.215,172.951,277.916,171.701,277.803,171.613z
		 M284.99,104.713c5.138,8.537,10.588,14.1,15.4,20.637c0.449,0.664,1.637,2.438,1.836,3.139c-0.588,0.013-2.263-0.063-2.699,0.074
		c-0.737,0.237-0.539,0.676-1.726,1.013C293.766,124.988,286.902,109.963,284.99,104.713z M288.641,102.938
		c-0.738-1.049-1.738-2.736-3.313-2.387c-1,0.225-1.301,1.139-1.325,2.512c-0.013,0.113-0.063,0.188-0.188,0.213
		c-0.074,0.013-0.236,0.039-0.361-0.037c-0.15-0.088-0.25-0.301-0.426-0.676c-0.324-0.649-0.611-0.649-1.174-0.674
		c-0.375-0.013-0.676,0-1.039-0.013c-0.324-0.013-0.262,0.037-0.336-0.25c-0.289-1.101-1.176-1.612-1.813,0.112l-0.838,2.236
		l-8.037,21.176c-0.987,2.563-1.788,4.813-2.163,6.274c-0.212,0.837-0.038,0.888-0.663,1.063c-0.325,0.087-3.024-0.063-3.649,0.287
		c-0.737,0.412-0.088,0.363-0.938,1c-0.45,0.338-0.763,0.213-0.688,1.113c0.113,1.512,1.926,0.924,3.851,2.074
		c0.601,1.65,0.112,8.25,0.351,10.637c0.086,3.801,0.024,6.613,3.861,7.2c-0.013,1.927-0.1,10.214,0.112,11.813
		c0.1,0.688,0.725,2.963,0.188,3.425c-0.813,0.726-4.75-0.449-7.426,1.876c-0.675,0.6-1.263,0.949-1.25,2.05
		c0.663,0.325,1.063,0.287,1.889,0.226c0.486,4.149,4.537,1.813,5.549,1.699c0.338,2.713-0.813,1.65,0.275,4.788
		c0.6,1.737-0.25,2.912,0.514,5.138c0.412,1.188,1.299,2.787,0.262,4.875c-0.637,1.263,0.225,2.763,2.988,2.361
		c0.986-0.148,4.262-0.75,4.813-1.212c1.736-1.463,2.5-0.162,4.361-1.688c1.713-1.387,1.525-1.563,1.576-4.476l0.063-4.45
		c0.225-1.687,1.55-1.1,2.875-1.062c3.313,0.125,1.712,1.575,2.462,3.05c0.763,1.514,3.226,0.824,2.274-2.213
		c1.238-0.725,2.213-0.986,2.051-2.938c-0.264-0.551-0.95-0.188-1.225-1.426c2.049-0.425,5.424-0.111,5.012-2.55
		c-0.987-0.274-5.625-0.05-7.262-0.138c-0.801-0.037-2.701-0.088-3.375-0.325c-0.813-0.287-1.676-1.125-1.863-1.824
		c0.699-0.524,6.25-1.963,6.162-6.801c-0.024-0.976-0.336-1.838-0.836-2.45c-1.188-1.475-2.612-2.111-4.563-2.023
		c-1.388,0.05-2,0.625-2.726,0.138c0.451-0.213,2.326-0.95,2.664-1.226c1.188-0.987-0.713-1.851,0.711-2.362
		c3.363-1.226,2.775,0.226,4.551-2.726c0.361-0.611,0.787-0.438,2.512-0.611c-0.188,3.623,0.163,15.225,1.514,17.425
		c1.211,0.125,2.125-0.888,2.361-1.988c0.25-1.137,0.264-3.149,0.301-4.399c0.074-2.313-0.039-7.213,0.35-9.074
		c1.563-0.676,3.363-0.037,3.013-2.313l-1.649,0.236c0.086-1.25,1.324-1.125,1.35-3.688c0.012-1.188-0.688-2.838-0.913-4.088
		c-0.212-1.188-0.175-3.537-0.226-4.899c-0.049-1.388-0.611-3.362-0.024-4.375c0.887-0.25,1.862,1.087,3.337-0.513
		c0.3-1.601-1.6-2.313-0.025-3.388c1.051-0.45,2.875,0.3,3.414,1.038c0.661,0.926,0.725,2.387,2.486,1.762
		c1.1-0.399,1.712-1.462,1.788-2.912c0.101-1.8-0.712-2.336-1.575-3.112c-1.087-0.976-0.85-1.737-1.587-3.087
		c-0.101-0.2-0.425-0.625-0.875-1.213C300.291,117.889,293.953,110.563,288.641,102.938z M301.703,149.163
		c0.85,6.889,3.438,4.176,4,2.163c0.611-2.176,0.337-7.426,0.3-9.987c-0.038-1.825-0.675-2.524-1.612-3.587
		C300.453,133.352,301.553,147.977,301.703,149.163z M302.678,161.65c0.014-1.199-0.012-1.875,0.413-2.75
		c0.875,0.063,1.038,0.274,1.4,0.826c0.425,0.662,0.35,0.888,0.987,1.198c0.112-1.262-0.537-2.487-1.086-3.25
		c-3.326-4.649-8.764,11.927-0.264,11.875c1.764,0,2.176-0.675,2.438-2.3c0.201-1.25,0.039-3.137-0.688-3.75
		c-0.949,0.95-0.574,2.063-1.275,2.738c-1.688,0.675-1.924-1.988-1.924-3.413v-1.175H302.678z M287.104,164.977
		c-1.488,4.037-5.326,3.549-5.476,1.162c-0.075-1.25,1.575-2.076,2.587-2.514C285.479,163.076,287.828,162.989,287.104,164.977z
		 M278.939,136.4c1.112,1.426,1.188,13.339,0.676,13.649c-1.338,0.839-4.662-1.899-4.975-4.799c-0.176-1.588-0.25-3.138-0.438-4.675
		c-0.125-1.051-0.875-3.475,0.05-4.087C274.891,136.051,278.266,136.125,278.939,136.4z M286.064,136.813
		c0.463-0.475,2.463-0.262,3.713-0.262c0.287,1.625,0.113,5.301,0.113,7.137c0,2.375,0.387,5.4-1.589,5.927
		c-1.762-1.013-1.274-4.175-1.286-6.313c0-1.212-0.051-2.5-0.089-3.725C286.854,137.15,286.34,137.488,286.064,136.813z"/>
	<path d="M330.24,104.852h4.375v15.85c0,1.813,0.225,3.038,0.675,3.688c0.438,0.65,1.226,0.976,2.351,0.976s1.899-0.337,2.324-0.987
		c0.438-0.65,0.65-1.888,0.65-3.738v-15.787h4.313v16.225c0,1.587-0.087,2.738-0.262,3.462c-0.175,0.726-0.475,1.362-0.9,1.913
		c-0.625,0.824-1.463,1.438-2.5,1.85c-1.024,0.413-2.263,0.625-3.688,0.625c-2.688,0-4.575-0.587-5.676-1.75
		c-1.111-1.162-1.662-3.188-1.662-6.1V104.852L330.24,104.852z M349.078,128.363V110.7h4v1.788c0.425-0.737,0.949-1.301,1.574-1.688
		c0.625-0.375,1.326-0.575,2.125-0.575c1.275,0,2.264,0.375,2.938,1.101c0.688,0.737,1.025,1.788,1.025,3.163v13.875h-3.938v-11.838
		c0-1.037-0.137-1.774-0.4-2.199c-0.262-0.413-0.711-0.625-1.324-0.625c-0.676,0-1.176,0.263-1.463,0.775
		c-0.301,0.524-0.438,1.399-0.438,2.638v11.25L349.078,128.363L349.078,128.363z M364.59,108.514v-3.664h4.063v3.664H364.59z
		 M364.59,128.363V110.7h4.063v17.663H364.59z M375.241,128.363l-4.101-17.663h4.351l2.35,13.513l2.25-13.513h4.212l-4.063,17.663
		H375.241z M390.516,117.301h3.987v-0.75c0-1.212-0.149-2.05-0.438-2.5c-0.299-0.462-0.824-0.699-1.563-0.699
		s-1.25,0.237-1.55,0.713c-0.313,0.475-0.463,1.3-0.463,2.486c0,0,0,0.075,0.013,0.25
		C390.516,116.963,390.516,117.139,390.516,117.301z M394.641,122.301h3.837c0,0.075,0,0.188,0.014,0.35
		c0.013,0.15,0.013,0.263,0.013,0.338c0,2.013-0.475,3.486-1.438,4.425c-0.964,0.95-2.487,1.413-4.575,1.413
		c-1.087,0-2.013-0.137-2.763-0.413c-0.737-0.274-1.351-0.7-1.824-1.274c-0.575-0.688-0.977-1.551-1.213-2.588
		c-0.226-1.025-0.351-2.9-0.351-5.6c0-2.139,0.112-3.676,0.312-4.6c0.201-0.926,0.552-1.688,1.039-2.275
		c0.5-0.612,1.175-1.063,1.986-1.375c0.825-0.313,1.801-0.475,2.926-0.475c1.088,0,2.024,0.174,2.813,0.5
		c0.788,0.338,1.438,0.838,1.963,1.5c0.438,0.6,0.75,1.336,0.938,2.225c0.188,0.888,0.286,2.324,0.286,4.313v1.351h-8.037
		c-0.023,0.125-0.037,0.263-0.037,0.413c0,0.149-0.012,0.387-0.012,0.712c0,1.675,0.161,2.85,0.475,3.524
		c0.313,0.663,0.838,1,1.574,1c0.738,0,1.25-0.274,1.588-0.813C394.479,124.4,394.641,123.525,394.641,122.301z M402.141,128.363
		V110.7h3.912v2.862c0.563-1.188,1.163-2.037,1.801-2.551c0.638-0.512,1.412-0.775,2.324-0.787v4.975
		c-0.148-0.025-0.313-0.038-0.463-0.051c-0.148-0.013-0.337-0.013-0.562-0.013c-0.876,0-1.563,0.263-2.075,0.775
		c-0.525,0.524-0.775,1.225-0.775,2.1v10.351h-4.162V128.363z M412.44,122.488h3.688v0.5c0,1.013,0.15,1.736,0.462,2.162
		c0.313,0.438,0.826,0.65,1.551,0.65c0.574,0,1.014-0.15,1.337-0.462c0.339-0.3,0.488-0.725,0.488-1.263
		c0-0.676-0.649-1.45-1.963-2.325l-0.788-0.513c-0.037-0.038-0.1-0.088-0.199-0.139c-2.987-2.063-4.486-4.074-4.486-6.05
		c0-1.563,0.486-2.763,1.462-3.587s2.388-1.238,4.236-1.238c1.788,0,3.126,0.463,4.025,1.375c0.9,0.914,1.35,2.289,1.35,4.139v0.375
		h-3.6v-0.375c0-0.85-0.162-1.475-0.487-1.875c-0.324-0.4-0.85-0.6-1.551-0.6c-0.512,0-0.912,0.137-1.225,0.424
		c-0.3,0.275-0.462,0.638-0.462,1.101c0,0.425,0.137,0.813,0.412,1.163c0.273,0.35,0.875,0.837,1.813,1.475
		c0.212,0.139,0.525,0.338,0.938,0.625c2.963,1.95,4.438,3.9,4.438,5.862c0,1.575-0.5,2.774-1.5,3.638
		c-1,0.85-2.438,1.275-4.288,1.275c-1.949,0-3.374-0.45-4.3-1.375c-0.925-0.912-1.387-2.337-1.387-4.275
		c0-0.074,0.012-0.188,0.023-0.337C412.428,122.676,412.44,122.563,412.44,122.488z M427.178,108.514v-3.664h4.063v3.664H427.178z
		 M427.178,128.363V110.7h4.063v17.663H427.178z M439.479,121.826v1.199c0,0.938,0.088,1.539,0.263,1.801
		c0.188,0.25,0.513,0.375,0.987,0.375h0.263c0.063-0.012,0.125-0.012,0.175-0.012v3.175c-0.587,0.063-1.05,0.1-1.375,0.125
		l-0.8,0.024c-1.375,0-2.325-0.262-2.837-0.813c-0.514-0.551-0.764-1.676-0.764-3.362v-10.612h-1.601v-3.025h1.601v-4.813h4.088
		v4.813h1.688v3.025h-1.688V121.826z M447.729,117.301h3.986v-0.75c0-1.212-0.148-2.05-0.437-2.5
		c-0.302-0.462-0.825-0.699-1.563-0.699s-1.25,0.237-1.551,0.713c-0.313,0.475-0.462,1.3-0.462,2.486c0,0,0,0.075,0.013,0.25
		C447.729,116.963,447.729,117.139,447.729,117.301z M451.854,122.301h3.838c0,0.075,0,0.188,0.013,0.35
		c0.013,0.15,0.013,0.263,0.013,0.338c0,2.013-0.476,3.486-1.438,4.425c-0.962,0.95-2.486,1.413-4.574,1.413
		c-1.088,0-2.013-0.137-2.763-0.413c-0.737-0.274-1.352-0.7-1.825-1.274c-0.575-0.688-0.976-1.551-1.212-2.588
		c-0.227-1.025-0.352-2.9-0.352-5.6c0-2.139,0.112-3.676,0.313-4.6c0.2-0.926,0.55-1.688,1.038-2.275
		c0.5-0.612,1.175-1.063,1.986-1.375c0.825-0.313,1.801-0.475,2.926-0.475c1.088,0,2.023,0.174,2.813,0.5
		c0.787,0.338,1.438,0.838,1.963,1.5c0.438,0.6,0.75,1.336,0.938,2.225c0.188,0.888,0.288,2.324,0.288,4.313v1.351h-8.038
		c-0.024,0.125-0.024,0.263-0.037,0.413c0,0.149-0.013,0.387-0.013,0.712c0,1.675,0.162,2.85,0.476,3.524
		c0.313,0.663,0.837,1,1.575,1c0.736,0,1.25-0.274,1.587-0.813C451.69,124.4,451.854,123.525,451.854,122.301z M463.641,121.826
		v1.199c0,0.938,0.088,1.539,0.264,1.801c0.175,0.25,0.512,0.375,0.986,0.375h0.264c0.062-0.012,0.125-0.012,0.175-0.012v3.175
		c-0.588,0.063-1.05,0.1-1.375,0.125l-0.813,0.024c-1.362,0-2.313-0.262-2.824-0.813c-0.514-0.551-0.774-1.676-0.774-3.362v-10.612
		h-1.588v-3.025h1.588v-4.813h4.1v4.813h1.688v3.025h-1.688L463.641,121.826L463.641,121.826z M468.19,108.514v-3.664h4.063v3.664
		H468.19z M468.19,128.363V110.7h4.063v17.663H468.19z M330.24,159.1v-23.5h12.074v3.914h-7.725v5.438h7.188v3.713h-7.188v6.475h7.9
		v3.963h-12.25V159.1z M357.49,141.451V159.1h-4v-1.748c-0.426,0.736-0.95,1.287-1.575,1.662s-1.337,0.563-2.138,0.563
		c-1.289,0-2.262-0.362-2.938-1.088c-0.675-0.725-1.012-1.787-1.012-3.162v-13.875h3.937v11.538c0,1.175,0.139,1.975,0.4,2.411
		c0.262,0.451,0.712,0.676,1.35,0.676c0.688,0,1.176-0.25,1.45-0.737c0.288-0.487,0.425-1.362,0.425-2.612v-11.274L357.49,141.451
		L357.49,141.451z M361.439,159.1v-17.648h3.912v2.863c0.551-1.2,1.15-2.051,1.789-2.551c0.637-0.512,1.411-0.774,2.324-0.787v4.975
		c-0.15-0.025-0.3-0.038-0.449-0.051c-0.164-0.012-0.352-0.012-0.563-0.012c-0.875,0-1.575,0.262-2.087,0.774
		c-0.514,0.513-0.775,1.212-0.775,2.087v10.35H361.439L361.439,159.1z M376.016,150.102v0.412c0,2.736,0.125,4.411,0.412,5.012
		c0.264,0.613,0.801,0.926,1.575,0.926c0.813,0,1.362-0.287,1.649-0.862c0.274-0.575,0.426-2.063,0.426-4.476v-0.725v-1
		c0-2.313-0.15-3.763-0.438-4.363c-0.289-0.6-0.826-0.887-1.601-0.887s-1.3,0.262-1.601,0.813c-0.287,0.538-0.424,1.85-0.424,3.925
		V150.102L376.016,150.102z M371.828,150.275c0-3.549,0.449-5.987,1.375-7.313c0.912-1.324,2.525-1.988,4.837-1.988
		c2.313,0,3.925,0.664,4.851,1.988c0.911,1.325,1.375,3.762,1.375,7.313c0,3.563-0.464,6.013-1.375,7.326
		c-0.926,1.313-2.537,1.975-4.851,1.975s-3.925-0.662-4.837-1.975C372.277,156.288,371.828,153.838,371.828,150.275z
		 M391.665,149.539c0,2.861,0.138,4.675,0.438,5.45c0.313,0.762,0.862,1.149,1.674,1.149c0.727,0,1.214-0.326,1.477-0.988
		c0.275-0.661,0.4-2.313,0.4-4.924c0-2.525-0.125-4.139-0.4-4.838c-0.263-0.688-0.75-1.039-1.477-1.039
		c-0.812,0-1.361,0.325-1.674,0.95C391.803,145.926,391.665,147.338,391.665,149.539z M387.689,165.039v-23.588h3.875v1.85
		c0.326-0.775,0.787-1.35,1.4-1.75c0.6-0.375,1.337-0.574,2.188-0.574c1.713,0,2.913,0.674,3.612,2.024
		c0.7,1.363,1.051,3.75,1.051,7.188c0,3.563-0.339,6.013-1.025,7.362c-0.675,1.351-1.85,2.024-3.55,2.024
		c-0.825,0-1.524-0.162-2.1-0.487c-0.563-0.325-1.014-0.813-1.363-1.476v7.426H387.689z M403.228,139.264V135.6h4.063v3.664H403.228
		z M403.228,159.1v-17.648h4.063V159.1H403.228z M419.003,149.852c-1.538,0.773-2.575,1.475-3.125,2.086
		c-0.537,0.602-0.813,1.326-0.813,2.164c0,0.773,0.149,1.361,0.438,1.725c0.287,0.375,0.75,0.563,1.362,0.563
		c0.713,0,1.25-0.313,1.6-0.938c0.363-0.612,0.538-1.551,0.538-2.787V149.852z M419.565,159.1c-0.089-0.123-0.162-0.324-0.237-0.586
		c-0.063-0.264-0.138-0.639-0.2-1.113c-0.425,0.701-0.975,1.25-1.663,1.613c-0.675,0.375-1.462,0.563-2.361,0.563
		c-1.351,0-2.388-0.45-3.138-1.362c-0.751-0.899-1.126-2.162-1.126-3.763c0-1.45,0.338-2.612,0.988-3.475
		c0.648-0.852,1.949-1.727,3.888-2.588l0.824-0.363c1.601-0.688,2.4-1.487,2.4-2.399c0-0.563-0.149-0.987-0.464-1.288
		c-0.312-0.3-0.763-0.449-1.35-0.449c-0.737,0-1.287,0.188-1.638,0.586c-0.338,0.4-0.524,1.025-0.524,1.863v0.362h-3.963
		c0-1.987,0.487-3.438,1.463-4.337c0.962-0.9,2.524-1.35,4.662-1.35c2.15,0,3.649,0.412,4.513,1.237
		c0.862,0.825,1.301,2.274,1.301,4.351v9.961c0,0.5,0.05,0.938,0.138,1.338c0.087,0.412,0.237,0.813,0.462,1.199H419.565
		L419.565,159.1z M426.766,159.1v-17.648h4v1.788c0.426-0.75,0.949-1.313,1.575-1.688c0.612-0.375,1.324-0.574,2.112-0.574
		c1.287,0,2.263,0.362,2.95,1.1c0.675,0.738,1.023,1.788,1.023,3.163v13.86h-3.938v-11.824c0-1.037-0.139-1.774-0.399-2.199
		c-0.263-0.426-0.713-0.625-1.325-0.625c-0.688,0-1.176,0.263-1.463,0.775c-0.3,0.513-0.45,1.399-0.45,2.638V159.1H426.766z
		 M450.479,139.264V135.6h4.063v3.664H450.479z M450.479,159.1v-17.648h4.063V159.1H450.479z M333.59,189.852v-19.625h-5.038v-3.875
		h14.438v3.875h-5.025v19.625H333.59z M345.453,170v-3.648h4.063V170H345.453z M345.453,189.852v-17.664h4.063v17.664H345.453z
		 M353.465,189.852v-17.664h3.913v2.875c0.563-1.198,1.163-2.049,1.8-2.563s1.412-0.764,2.325-0.773v4.961
		c-0.149-0.012-0.313-0.037-0.462-0.037c-0.15-0.012-0.338-0.024-0.563-0.024c-0.875,0-1.563,0.263-2.076,0.774
		c-0.524,0.525-0.774,1.226-0.774,2.101v10.351H353.465L353.465,189.852z M372.178,180.602c-1.537,0.773-2.588,1.461-3.125,2.073
		c-0.55,0.612-0.812,1.339-0.812,2.177c0,0.773,0.137,1.35,0.437,1.725c0.275,0.375,0.738,0.55,1.363,0.55
		c0.712,0,1.236-0.3,1.6-0.925c0.351-0.625,0.539-1.551,0.539-2.787v-2.813H372.178z M372.74,189.852
		c-0.1-0.125-0.176-0.338-0.237-0.588c-0.075-0.275-0.138-0.649-0.212-1.125c-0.425,0.713-0.975,1.25-1.65,1.625
		c-0.675,0.375-1.461,0.563-2.375,0.563c-1.338,0-2.375-0.462-3.125-1.362c-0.75-0.899-1.125-2.162-1.125-3.774
		c0-1.449,0.325-2.601,0.988-3.463c0.65-0.862,1.95-1.726,3.889-2.588c0.188-0.1,0.475-0.212,0.824-0.361
		c1.6-0.688,2.4-1.487,2.4-2.4c0-0.563-0.162-1-0.475-1.287c-0.301-0.313-0.75-0.463-1.338-0.463c-0.736,0-1.287,0.2-1.638,0.602
		c-0.351,0.398-0.524,1.023-0.524,1.861v0.35h-3.975c0-1.975,0.486-3.424,1.462-4.323c0.976-0.9,2.524-1.363,4.675-1.363
		s3.65,0.425,4.514,1.25c0.861,0.825,1.3,2.274,1.3,4.351v9.963c0,0.488,0.036,0.938,0.125,1.338c0.1,0.398,0.25,0.8,0.462,1.199
		h-3.965V189.852z M379.928,189.852v-17.664h4.014v1.801c0.425-0.75,0.949-1.313,1.563-1.688c0.625-0.388,1.338-0.574,2.125-0.574
		c1.287,0,2.264,0.361,2.95,1.1c0.675,0.726,1.013,1.788,1.013,3.162v13.863h-3.938v-11.838c0-1.037-0.125-1.764-0.399-2.188
		c-0.263-0.425-0.7-0.638-1.313-0.638c-0.688,0-1.174,0.263-1.463,0.774c-0.299,0.524-0.448,1.412-0.448,2.649v11.238h-4.103
		V189.852z M399.153,178.789h3.986v-0.75c0-1.213-0.149-2.038-0.449-2.5c-0.301-0.463-0.813-0.688-1.563-0.688
		c-0.726,0-1.237,0.236-1.55,0.711c-0.3,0.463-0.463,1.302-0.463,2.477c0,0,0.013,0.087,0.024,0.25
		C399.141,178.463,399.153,178.625,399.153,178.789z M403.266,183.788h3.851c0,0.088,0,0.201,0.013,0.351
		c0.013,0.15,0.013,0.264,0.013,0.338c0,2.012-0.487,3.487-1.438,4.438c-0.963,0.938-2.488,1.412-4.575,1.412
		c-1.101,0-2.013-0.138-2.763-0.413c-0.737-0.273-1.351-0.712-1.825-1.287c-0.574-0.688-0.975-1.537-1.212-2.574
		s-0.351-2.9-0.351-5.601c0-2.15,0.101-3.688,0.313-4.612c0.2-0.925,0.538-1.675,1.038-2.275c0.5-0.6,1.162-1.063,1.987-1.375
		c0.813-0.313,1.787-0.461,2.925-0.461c1.088,0,2.024,0.162,2.813,0.486c0.788,0.338,1.438,0.838,1.963,1.514
		c0.438,0.586,0.75,1.323,0.938,2.211c0.188,0.9,0.274,2.338,0.274,4.313v1.351h-8.024c-0.025,0.125-0.038,0.274-0.038,0.412
		c-0.012,0.15-0.012,0.389-0.012,0.713c0,1.688,0.148,2.851,0.462,3.524c0.313,0.674,0.838,1,1.588,1
		c0.725,0,1.25-0.263,1.575-0.813C403.115,185.889,403.266,185.014,403.266,183.788z M402.078,169.977v-3.625h3.337v3.625H402.078z
		 M396.853,169.977v-3.625h3.352v3.625H396.853z M410.115,183.977h3.7v0.5c0,1.023,0.149,1.75,0.462,2.174
		c0.313,0.426,0.825,0.639,1.551,0.639c0.563,0,1.012-0.15,1.338-0.463c0.324-0.301,0.487-0.725,0.487-1.264
		c0-0.674-0.65-1.438-1.977-2.313l-0.774-0.523c-0.05-0.039-0.112-0.076-0.199-0.139c-2.987-2.063-4.488-4.074-4.488-6.038
		c0-1.573,0.488-2.774,1.463-3.587c0.963-0.824,2.375-1.236,4.227-1.236c1.8,0,3.137,0.448,4.037,1.361
		c0.888,0.912,1.337,2.287,1.337,4.15v0.361h-3.587v-0.361c0-0.863-0.162-1.488-0.5-1.889c-0.325-0.399-0.839-0.601-1.537-0.601
		c-0.514,0-0.925,0.149-1.227,0.425c-0.313,0.275-0.462,0.65-0.462,1.102c0,0.438,0.138,0.824,0.412,1.162
		c0.263,0.351,0.875,0.838,1.813,1.476c0.213,0.137,0.523,0.351,0.925,0.625c2.963,1.95,4.45,3.899,4.45,5.875
		c0,1.563-0.5,2.774-1.514,3.625c-1,0.851-2.425,1.287-4.273,1.287c-1.95,0-3.389-0.462-4.313-1.375
		c-0.912-0.912-1.375-2.351-1.375-4.287c0-0.075,0-0.188,0.013-0.338C410.117,184.175,410.115,184.063,410.115,183.977z"/>
</g>
</svg>
