<?xml version="1.0" encoding="utf-8"?>
<!-- Generator: Adobe Illustrator 16.0.3, SVG Export Plug-In . SVG Version: 6.00 Build 0)  -->
<!DOCTYPE svg PUBLIC "-//W3C//DTD SVG 1.1//EN" "http://www.w3.org/Graphics/SVG/1.1/DTD/svg11.dtd">
<svg version="1.1" id="Layer_1" xmlns="http://www.w3.org/2000/svg" x="0px" y="0px"
	 width="566.929px" height="566.93px" viewBox="0 0 566.929 566.93" enable-background="new 0 0 566.929 566.93"
	 xml:space="preserve">
<path fill="#FFFFFF" d="M169.604,463.61l-58.023,100.535l43.146-100.535h-27.488c-37.762,0-66.879-9.988-87.426-30.039
	c-20.544-20.12-30.816-49.025-30.816-86.72v-67.375c0-9.988,5.029-15.021,15.02-15.021h60.927c10.061,0,15.02,5.031,15.02,15.021
	v63.054c0,15.305,3.258,26.146,9.706,32.592c6.447,6.447,17.075,9.705,31.882,9.705h42.294c15.303,0,26.001-3.258,32.235-9.705
	c6.234-6.446,9.281-17.287,9.281-32.592V17.904c0-9.988,5.312-15.021,15.797-15.021h60.15c10.058,0,15.089,4.818,15.089,14.313
	v192.281L169.604,463.61z"/>
	<path fill="#FFFFFF" d="M301.568,564.144h-60.855c-10.06,0-15.09-5.03-15.09-15.091v-122.07l91.039-157.639l58.02-100.533
	l-58.02,135.179v18.634h1.416c3.824-11.478,11.266-26.284,22.246-44.422l108.891-159.763c6.234-10.06,15.514-15.09,27.914-15.09
	h70.277c5.244,0,8.432,1.56,9.637,4.675c1.203,3.118-0.145,7.014-3.898,11.831L416.98,308.311L568.873,546.22
	c3.33,5.736,3.969,10.133,1.771,13.248c-2.123,3.117-6.518,4.677-13.248,4.677h-52.283c-16.721,0-27.982-5.03-33.654-15.091
	l-109.67-175.563l-45.128,53.065v122.497C316.661,559.114,311.63,564.144,301.568,564.144L301.568,564.144z"/>
</svg>
