<?xml version="1.0" encoding="utf-8"?>
<!-- Generator: Adobe Illustrator 16.0.0, SVG Export Plug-In . SVG Version: 6.00 Build 0)  -->
<!DOCTYPE svg PUBLIC "-//W3C//DTD SVG 1.1//EN" "http://www.w3.org/Graphics/SVG/1.1/DTD/svg11.dtd">
<svg version="1.1" id="Layer_3" xmlns="http://www.w3.org/2000/svg" xmlns:xlink="http://www.w3.org/1999/xlink" x="0px" y="0px"
	 width="562.932px" height="561.262px" viewBox="0 0 562.932 561.262" enable-background="new 0 0 562.932 561.262"
	 xml:space="preserve">
<g>
	<path fill="#304A85" d="M399.095,309.672c3.607-12.842,1.988-43.829,1.77-58.947c-0.225-10.772-3.983-14.899-9.517-21.171
		c-23.239-25.971-16.749,60.346-15.862,67.35C380.501,337.563,395.774,321.551,399.095,309.672z"/>
	<path fill="#304A85" d="M144.842,431.184c-3.983,3.539-7.453,5.602-7.377,12.098c3.913,1.92,6.271,1.695,11.147,1.332
		c2.871,24.49,26.779,10.697,32.75,10.029c1.995,16.012-4.795,9.74,1.626,28.26c3.539,10.254-1.476,17.188,3.031,30.322
		c2.433,7.01,7.666,16.449,1.545,28.773c-3.758,7.453,1.326,16.305,17.637,13.936c5.822-0.875,25.153-4.426,28.404-7.152
		c10.248-8.633,14.756-0.957,25.741-9.965c10.109-8.186,9.003-9.223,9.303-26.416l0.369-26.266c1.325-9.953,9.146-6.49,16.968-6.266
		c19.551,0.738,10.104,9.297,14.531,18.002c4.501,8.934,19.037,4.863,13.424-13.063c7.309-4.275,13.061-5.82,12.104-17.336
		c-1.556-3.252-5.607-1.113-7.228-8.416c12.093-2.508,32.012-0.656,29.58-15.049c-5.827-1.619-33.2-0.295-42.86-0.813
		c-4.726-0.219-15.942-0.52-19.919-1.92c-4.802-1.693-9.891-6.641-10.997-10.766c4.127-3.096,36.888-11.586,36.369-40.141
		c-0.145-5.758-1.982-10.848-4.934-14.461c-7.015-8.703-15.418-12.461-26.935-11.941c-8.19,0.293-11.804,3.688-16.087,0.813
		c2.663-1.258,13.729-5.609,15.724-7.234c7.009-5.826-4.207-10.922,4.196-13.943c19.851-7.232,16.381,1.332,26.859-16.086
		c2.133-3.607,4.646-2.582,14.824-3.607c-1.106,21.383,0.963,89.857,8.934,102.842c7.147,0.738,12.543-5.238,13.938-11.734
		c1.476-6.709,1.556-18.588,1.775-25.965c0.438-13.65-0.23-42.572,2.063-53.559c9.223-3.988,19.852-0.219,17.781-13.648
		l-9.734,1.395c0.507-7.377,7.815-6.639,7.965-21.764c0.07-7.014-4.057-16.75-5.389-24.126c-1.251-7.009-1.031-20.877-1.331-28.917
		c-0.288-8.19-3.608-19.845-0.145-25.822c5.233-1.476,10.991,6.415,19.695-3.026c1.77-9.447-9.441-13.654-0.15-19.995
		c6.202-2.657,16.969,1.77,20.15,6.127c3.902,5.464,4.276,14.087,14.675,10.398c6.49-2.357,10.104-8.628,10.553-17.188
		c0.594-10.623-4.201-13.787-9.297-18.369c-6.414-5.758-5.014-10.254-9.365-18.219c-0.594-1.182-2.508-3.689-5.165-7.159
		c-34.438-42.86-71.845-86.1-103.2-131.103c-4.357-6.19-10.26-16.15-19.551-14.087c-5.902,1.326-7.678,6.721-7.821,14.824
		c-0.075,0.669-0.375,1.113-1.112,1.257c-0.438,0.075-1.396,0.23-2.133-0.219c-0.888-0.519-1.476-1.775-2.514-3.988
		c-1.913-3.833-3.607-3.833-6.928-3.977c-2.213-0.075-3.988,0-6.133-0.075c-1.913-0.075-1.545,0.219-1.982-1.476
		c-1.706-6.496-6.939-9.516-10.703,0.663l-4.945,13.199l-47.437,124.982c-5.827,15.124-10.553,28.404-12.767,37.032
		c-1.25,4.939-0.225,5.239-3.914,6.277c-1.919,0.513-17.85-0.375-21.539,1.694c-4.352,2.433-0.519,2.144-5.539,5.902
		c-2.657,1.994-4.501,1.256-4.063,6.57c0.668,8.923,11.366,5.453,22.727,12.242c3.544,9.741,0.663,48.692,2.069,62.779
		c0.507,22.434,0.144,39.033,22.79,42.498c-0.075,11.371-0.588,60.283,0.663,69.723c0.588,4.059,4.277,17.488,1.112,20.215
		C183.869,424.393,160.635,417.459,144.842,431.184z M296.39,299.566c-10.398-5.977-7.521-24.639-7.591-37.262
		c0-7.152-0.3-14.755-0.524-21.983c-0.433-14.317-3.465-12.322-5.09-16.312c2.732-2.801,14.536-1.544,21.914-1.544
		c1.694,9.591,0.668,31.285,0.668,42.121C305.767,278.604,308.05,296.461,296.39,299.566z M367.739,156.354
		c2.651,3.919,9.66,14.392,10.836,18.525c-3.47,0.075-13.354-0.375-15.931,0.438c-4.353,1.4-3.182,3.988-10.185,5.977
		c-23.822-27.073-64.33-115.754-75.615-146.74C307.168,84.941,339.335,117.771,367.739,156.354z M272.269,382.26
		c7.458-3.238,21.325-3.752,17.049,7.977c-8.784,23.828-31.436,20.947-32.317,6.859C256.556,389.719,266.297,384.842,272.269,382.26
		z M260.47,428.746c5.02,0.736,5.389,0.225,6.789,4.131c-6.795,4.428-32.167-2.951-32.836-3.469
		c1.037-1.037-1.395-0.438,2.438-1.695C249.259,423.656,256.712,428.232,260.47,428.746z M213.466,222.102
		c3.77-2.588,23.689-2.15,27.666-0.524c6.565,8.415,7.015,78.727,3.988,80.561c-7.896,4.951-27.516-11.211-29.36-28.324
		c-1.037-9.372-1.476-18.52-2.588-27.592C212.435,240.021,208.008,225.716,213.466,222.102z"/>
	<path fill="#304A85" d="M392.604,397.684c-9.96,3.982-11.354-11.734-11.354-20.145v-6.934h-0.012
		c0.081-7.078-0.069-11.066,2.438-16.23c5.164,0.375,6.127,1.619,8.265,4.877c2.507,3.906,2.063,5.238,5.827,7.072
		c0.663-7.447-3.17-14.682-6.409-19.184c-19.632-27.441-51.724,70.395-1.556,70.088c10.409,0,12.841-3.982,14.386-13.572
		c1.188-7.379,0.23-18.514-4.058-22.135C394.529,387.131,396.743,393.695,392.604,397.684z"/>
</g>
</svg>
